<mxfile host="app.diagrams.net" modified="2024-01-18T14:35:41.167Z" agent="Mozilla/5.0 (Windows NT 10.0; Win64; x64) AppleWebKit/537.36 (KHTML, like Gecko) Chrome/120.0.0.0 Safari/537.36" version="22.1.20" etag="3Qu3weobYCsKX9ecyAVj" type="github">
  <diagram name="Page-1" id="-l9PlCafodSGs2W8CGvB">
    <mxGraphModel>
      <root>
        <mxCell id="0" />
        <mxCell id="1" parent="0" />
      </root>
    </mxGraphModel>
  </diagram>
</mxfile>
